# xmcd
#
# Track frame offsets:
#	150
#	13430
#	25130
#	37875
#	53837
#	68200
#
# Disc length: 1146 seconds
#
# Revision: 1
# Processed by: cddbd v1.4PL0 Copyright (c) Steve Scherf et al.
# Submitted via: EasyCDDAExtractor 6.0.0.1
#
DISCID=49047806
DTITLE=Louisana Hot Sauce
DYEAR=1900
DGENRE=
TTITLE0=Dancing To The Radio
TTITLE1=Richest Man In The World
TTITLE2=Don't You Want My Love
TTITLE3=Pieces Of My Heart
TTITLE4=When We Dance
TTITLE5=Montana Ways
EXTD=
EXTT0=
EXTT1=
EXTT2=
EXTT3=
EXTT4=
EXTT5=
PLAYORDER=
